<svg width="288" height="47" viewBox="0 0 288 47" fill="none" xmlns="http://www.w3.org/2000/svg">
<rect width="288" height="47" rx="20" fill="#FAD02C"/>
<path d="M37.9904 28.38C36.8491 28.38 35.8144 28.1347 34.8864 27.644C33.9691 27.1427 33.2438 26.4547 32.7104 25.58C32.1878 24.6947 31.9264 23.6973 31.9264 22.588C31.9264 21.4787 32.1878 20.4867 32.7104 19.612C33.2438 18.7267 33.9691 18.0387 34.8864 17.548C35.8144 17.0467 36.8544 16.796 38.0064 16.796C38.9771 16.796 39.8518 16.9667 40.6304 17.308C41.4198 17.6493 42.0811 18.14 42.6144 18.78L40.9504 20.316C40.1931 19.4413 39.2544 19.004 38.1344 19.004C37.4411 19.004 36.8224 19.1587 36.2784 19.468C35.7344 19.7667 35.3078 20.188 34.9984 20.732C34.6998 21.276 34.5504 21.8947 34.5504 22.588C34.5504 23.2813 34.6998 23.9 34.9984 24.444C35.3078 24.988 35.7344 25.4147 36.2784 25.724C36.8224 26.0227 37.4411 26.172 38.1344 26.172C39.2544 26.172 40.1931 25.7293 40.9504 24.844L42.6144 26.38C42.0811 27.0307 41.4198 27.5267 40.6304 27.868C39.8411 28.2093 38.9611 28.38 37.9904 28.38Z" fill="#3B3E5E"/>
<path d="M47.9038 24.924H46.6078V28.188H44.1118V19.58H46.6078V22.924H47.9518L50.2878 19.58H52.9438L49.9358 23.708L53.1518 28.188H50.2078L47.9038 24.924Z" fill="#3B3E5E"/>
<path d="M57.5652 19.452C58.8985 19.452 59.9225 19.772 60.6372 20.412C61.3519 21.0413 61.7092 21.996 61.7092 23.276V28.188H59.3732V27.116C58.9039 27.916 58.0292 28.316 56.7492 28.316C56.0879 28.316 55.5119 28.204 55.0212 27.98C54.5412 27.756 54.1732 27.4467 53.9172 27.052C53.6612 26.6573 53.5332 26.2093 53.5332 25.708C53.5332 24.908 53.8319 24.2787 54.4292 23.82C55.0372 23.3613 55.9705 23.132 57.2292 23.132H59.2132C59.2132 22.588 59.0479 22.172 58.7172 21.884C58.3865 21.5853 57.8905 21.436 57.2292 21.436C56.7705 21.436 56.3172 21.5107 55.8692 21.66C55.4319 21.7987 55.0585 21.9907 54.7492 22.236L53.8532 20.492C54.3225 20.1613 54.8825 19.9053 55.5332 19.724C56.1945 19.5427 56.8719 19.452 57.5652 19.452ZM57.3732 26.636C57.7999 26.636 58.1785 26.54 58.5092 26.348C58.8399 26.1453 59.0745 25.852 59.2132 25.468V24.588H57.5012C56.4772 24.588 55.9652 24.924 55.9652 25.596C55.9652 25.916 56.0879 26.172 56.3332 26.364C56.5892 26.5453 56.9359 26.636 57.3732 26.636Z" fill="#3B3E5E"/>
<path d="M71.6214 19.58V28.188H69.1254V24.988C68.4001 25.3507 67.6001 25.532 66.7254 25.532C65.5628 25.532 64.6828 25.2707 64.0854 24.748C63.4988 24.2147 63.2054 23.3933 63.2054 22.284V19.58H65.7014V22.124C65.7014 22.6467 65.8348 23.0253 66.1014 23.26C66.3788 23.4947 66.7734 23.612 67.2854 23.612C67.9361 23.612 68.5494 23.4733 69.1254 23.196V19.58H71.6214Z" fill="#3B3E5E"/>
<path d="M77.3621 19.452C78.6954 19.452 79.7194 19.772 80.4341 20.412C81.1487 21.0413 81.5061 21.996 81.5061 23.276V28.188H79.1701V27.116C78.7007 27.916 77.8261 28.316 76.5461 28.316C75.8847 28.316 75.3087 28.204 74.8181 27.98C74.3381 27.756 73.9701 27.4467 73.7141 27.052C73.4581 26.6573 73.3301 26.2093 73.3301 25.708C73.3301 24.908 73.6287 24.2787 74.2261 23.82C74.8341 23.3613 75.7674 23.132 77.0261 23.132H79.0101C79.0101 22.588 78.8447 22.172 78.5141 21.884C78.1834 21.5853 77.6874 21.436 77.0261 21.436C76.5674 21.436 76.1141 21.5107 75.6661 21.66C75.2287 21.7987 74.8554 21.9907 74.5461 22.236L73.6501 20.492C74.1194 20.1613 74.6794 19.9053 75.3301 19.724C75.9914 19.5427 76.6687 19.452 77.3621 19.452ZM77.1701 26.636C77.5967 26.636 77.9754 26.54 78.3061 26.348C78.6367 26.1453 78.8714 25.852 79.0101 25.468V24.588H77.2981C76.2741 24.588 75.7621 24.924 75.7621 25.596C75.7621 25.916 75.8847 26.172 76.1301 26.364C76.3861 26.5453 76.7327 26.636 77.1701 26.636Z" fill="#3B3E5E"/>
<path d="M90.9063 21.628H87.9943V28.188H85.5143V21.628H82.6023V19.58H90.9063V21.628Z" fill="#3B3E5E"/>
<path d="M96.8928 22.332C98.0128 22.3427 98.8715 22.5987 99.4688 23.1C100.066 23.5907 100.365 24.2893 100.365 25.196C100.365 26.1453 100.029 26.8867 99.3568 27.42C98.6955 27.9427 97.7621 28.204 96.5568 28.204L92.2368 28.188V19.58H94.7168V22.332H96.8928ZM96.3328 26.428C96.8128 26.4387 97.1808 26.3373 97.4368 26.124C97.6928 25.9107 97.8208 25.5907 97.8208 25.164C97.8208 24.748 97.6928 24.444 97.4368 24.252C97.1915 24.06 96.8235 23.9587 96.3328 23.948L94.7168 23.932V26.428H96.3328Z" fill="#3B3E5E"/>
<path d="M106.456 19.58H108.936V24.7L113.128 19.58H115.416V28.188H112.936V23.068L108.76 28.188H106.456V19.58Z" fill="#3B3E5E"/>
<path d="M123.321 23.708C123.833 23.868 124.227 24.1133 124.505 24.444C124.793 24.7747 124.937 25.1693 124.937 25.628C124.937 26.172 124.75 26.652 124.377 27.068C124.003 27.4733 123.491 27.788 122.841 28.012C122.19 28.236 121.454 28.348 120.633 28.348C119.961 28.348 119.299 28.2787 118.649 28.14C117.998 28.0013 117.395 27.7933 116.841 27.516L117.513 25.772C118.419 26.2093 119.422 26.428 120.521 26.428C121.107 26.428 121.566 26.3427 121.897 26.172C122.238 25.9907 122.409 25.74 122.409 25.42C122.409 25.1427 122.291 24.9347 122.057 24.796C121.822 24.6467 121.481 24.572 121.033 24.572H119.273V23.02H120.809C121.246 23.02 121.582 22.9507 121.817 22.812C122.051 22.6733 122.169 22.4707 122.169 22.204C122.169 21.9267 122.019 21.7133 121.721 21.564C121.433 21.4147 121.017 21.34 120.473 21.34C119.641 21.34 118.734 21.5373 117.753 21.932L117.145 20.204C118.339 19.6813 119.502 19.42 120.633 19.42C121.411 19.42 122.105 19.516 122.713 19.708C123.331 19.9 123.817 20.1827 124.169 20.556C124.521 20.9187 124.697 21.3453 124.697 21.836C124.697 22.2413 124.574 22.6093 124.329 22.94C124.083 23.26 123.747 23.516 123.321 23.708Z" fill="#3B3E5E"/>
<path d="M130.784 28.316C129.878 28.316 129.062 28.1293 128.336 27.756C127.622 27.372 127.062 26.844 126.656 26.172C126.251 25.5 126.048 24.7373 126.048 23.884C126.048 23.0307 126.251 22.268 126.656 21.596C127.062 20.924 127.622 20.4013 128.336 20.028C129.062 19.644 129.878 19.452 130.784 19.452C131.691 19.452 132.502 19.644 133.216 20.028C133.931 20.4013 134.491 20.924 134.896 21.596C135.302 22.268 135.504 23.0307 135.504 23.884C135.504 24.7373 135.302 25.5 134.896 26.172C134.491 26.844 133.931 27.372 133.216 27.756C132.502 28.1293 131.691 28.316 130.784 28.316ZM130.784 26.268C131.424 26.268 131.947 26.0547 132.352 25.628C132.768 25.1907 132.976 24.6093 132.976 23.884C132.976 23.1587 132.768 22.5827 132.352 22.156C131.947 21.7187 131.424 21.5 130.784 21.5C130.144 21.5 129.616 21.7187 129.2 22.156C128.784 22.5827 128.576 23.1587 128.576 23.884C128.576 24.6093 128.784 25.1907 129.2 25.628C129.616 26.0547 130.144 26.268 130.784 26.268Z" fill="#3B3E5E"/>
<path d="M142.197 20.172C143.019 20.172 143.739 20.3427 144.357 20.684C144.976 21.0147 145.451 21.484 145.781 22.092C146.123 22.7 146.293 23.404 146.293 24.204C146.293 25.0253 146.091 25.756 145.685 26.396C145.291 27.0253 144.736 27.516 144.021 27.868C143.307 28.2093 142.496 28.38 141.589 28.38C140.085 28.38 138.901 27.9 138.037 26.94C137.184 25.9693 136.757 24.5507 136.757 22.684C136.757 20.956 137.131 19.58 137.877 18.556C138.635 17.5213 139.792 16.844 141.349 16.524L145.445 15.708L145.781 17.852L142.165 18.572C141.184 18.764 140.453 19.084 139.973 19.532C139.504 19.98 139.227 20.6147 139.141 21.436C139.515 21.0307 139.963 20.7213 140.485 20.508C141.008 20.284 141.579 20.172 142.197 20.172ZM141.605 26.444C142.245 26.444 142.757 26.236 143.141 25.82C143.536 25.404 143.733 24.876 143.733 24.236C143.733 23.5853 143.536 23.068 143.141 22.684C142.757 22.3 142.245 22.108 141.605 22.108C140.955 22.108 140.432 22.3 140.037 22.684C139.643 23.068 139.445 23.5853 139.445 24.236C139.445 24.8867 139.648 25.42 140.053 25.836C140.459 26.2413 140.976 26.444 141.605 26.444Z" fill="#3B3E5E"/>
<path d="M153.059 19.452C153.859 19.452 154.584 19.6387 155.235 20.012C155.896 20.3747 156.413 20.892 156.787 21.564C157.16 22.2253 157.347 22.9987 157.347 23.884C157.347 24.7693 157.16 25.548 156.787 26.22C156.413 26.8813 155.896 27.3987 155.235 27.772C154.584 28.1347 153.859 28.316 153.059 28.316C151.96 28.316 151.096 27.9693 150.467 27.276V31.292H147.971V19.58H150.355V20.572C150.973 19.8253 151.875 19.452 153.059 19.452ZM152.627 26.268C153.267 26.268 153.789 26.0547 154.195 25.628C154.611 25.1907 154.819 24.6093 154.819 23.884C154.819 23.1587 154.611 22.5827 154.195 22.156C153.789 21.7187 153.267 21.5 152.627 21.5C151.987 21.5 151.459 21.7187 151.043 22.156C150.637 22.5827 150.435 23.1587 150.435 23.884C150.435 24.6093 150.637 25.1907 151.043 25.628C151.459 26.0547 151.987 26.268 152.627 26.268Z" fill="#3B3E5E"/>
<path d="M162.3 19.452C163.633 19.452 164.657 19.772 165.372 20.412C166.086 21.0413 166.444 21.996 166.444 23.276V28.188H164.108V27.116C163.638 27.916 162.764 28.316 161.484 28.316C160.822 28.316 160.246 28.204 159.756 27.98C159.276 27.756 158.908 27.4467 158.652 27.052C158.396 26.6573 158.268 26.2093 158.268 25.708C158.268 24.908 158.566 24.2787 159.164 23.82C159.772 23.3613 160.705 23.132 161.964 23.132H163.948C163.948 22.588 163.782 22.172 163.452 21.884C163.121 21.5853 162.625 21.436 161.964 21.436C161.505 21.436 161.052 21.5107 160.604 21.66C160.166 21.7987 159.793 21.9907 159.484 22.236L158.588 20.492C159.057 20.1613 159.617 19.9053 160.268 19.724C160.929 19.5427 161.606 19.452 162.3 19.452ZM162.108 26.636C162.534 26.636 162.913 26.54 163.244 26.348C163.574 26.1453 163.809 25.852 163.948 25.468V24.588H162.236C161.212 24.588 160.7 24.924 160.7 25.596C160.7 25.916 160.822 26.172 161.068 26.364C161.324 26.5453 161.67 26.636 162.108 26.636Z" fill="#3B3E5E"/>
<path d="M177.14 24.924H175.94V28.188H173.476V24.924H172.276L170.452 28.188H167.508L170.212 23.74L167.7 19.58H170.34L172.244 22.924H173.476V19.58H175.94V22.924H177.156L179.076 19.58H181.716L179.204 23.74L181.924 28.188H178.964L177.14 24.924Z" fill="#3B3E5E"/>
<path d="M191.324 23.916C191.324 23.948 191.308 24.172 191.276 24.588H184.764C184.881 25.1213 185.158 25.5427 185.596 25.852C186.033 26.1613 186.577 26.316 187.228 26.316C187.676 26.316 188.07 26.252 188.412 26.124C188.764 25.9853 189.089 25.772 189.388 25.484L190.716 26.924C189.905 27.852 188.721 28.316 187.164 28.316C186.193 28.316 185.334 28.1293 184.588 27.756C183.841 27.372 183.265 26.844 182.86 26.172C182.454 25.5 182.252 24.7373 182.252 23.884C182.252 23.0413 182.449 22.284 182.844 21.612C183.249 20.9293 183.798 20.4013 184.492 20.028C185.196 19.644 185.98 19.452 186.844 19.452C187.686 19.452 188.449 19.6333 189.132 19.996C189.814 20.3587 190.348 20.8813 190.732 21.564C191.126 22.236 191.324 23.02 191.324 23.916ZM186.86 21.34C186.294 21.34 185.82 21.5 185.436 21.82C185.052 22.14 184.817 22.5773 184.732 23.132H188.972C188.886 22.588 188.652 22.156 188.268 21.836C187.884 21.5053 187.414 21.34 186.86 21.34Z" fill="#3B3E5E"/>
<path d="M193.237 19.58H195.717V22.94H199.461V19.58H201.957V28.188H199.461V24.972H195.717V28.188H193.237V19.58Z" fill="#3B3E5E"/>
<path d="M204.346 19.58H206.826V24.7L211.018 19.58H213.306V28.188H210.826V23.068L206.65 28.188H204.346V19.58Z" fill="#3B3E5E"/>
<path d="M224.074 23.916C224.074 23.948 224.058 24.172 224.026 24.588H217.514C217.631 25.1213 217.908 25.5427 218.346 25.852C218.783 26.1613 219.327 26.316 219.978 26.316C220.426 26.316 220.82 26.252 221.162 26.124C221.514 25.9853 221.839 25.772 222.138 25.484L223.466 26.924C222.655 27.852 221.471 28.316 219.914 28.316C218.943 28.316 218.084 28.1293 217.338 27.756C216.591 27.372 216.015 26.844 215.61 26.172C215.204 25.5 215.002 24.7373 215.002 23.884C215.002 23.0413 215.199 22.284 215.594 21.612C215.999 20.9293 216.548 20.4013 217.242 20.028C217.946 19.644 218.73 19.452 219.594 19.452C220.436 19.452 221.199 19.6333 221.882 19.996C222.564 20.3587 223.098 20.8813 223.482 21.564C223.876 22.236 224.074 23.02 224.074 23.916ZM219.61 21.34C219.044 21.34 218.57 21.5 218.186 21.82C217.802 22.14 217.567 22.5773 217.482 23.132H221.722C221.636 22.588 221.402 22.156 221.018 21.836C220.634 21.5053 220.164 21.34 219.61 21.34Z" fill="#3B3E5E"/>
<path d="M248.074 31L256.074 22.8522M248.074 31L240.074 22.8522M248.074 31V16" stroke="#3B3E5E" stroke-width="4" stroke-linecap="round" stroke-linejoin="round"/>
</svg>
